<svg width="25" height="25" viewBox="0 0 25 25" fill="none" xmlns="http://www.w3.org/2000/svg">
<path d="M12.5002 22.9166C13.8684 22.9184 15.2234 22.6497 16.4875 22.1261C17.7515 21.6025 18.8996 20.8343 19.8658 19.8655C20.8345 18.8994 21.6028 17.7513 22.1264 16.4872C22.65 15.2232 22.9186 13.8681 22.9168 12.4999C22.9186 11.1317 22.6499 9.77669 22.1263 8.51265C21.6027 7.24861 20.8345 6.1005 19.8658 5.1343C18.8996 4.16557 17.7515 3.39732 16.4875 2.87372C15.2234 2.35012 13.8684 2.08149 12.5002 2.08326C11.132 2.08152 9.77693 2.35016 8.51289 2.87376C7.24886 3.39736 6.10075 4.16559 5.13455 5.1343C4.16583 6.1005 3.3976 7.24861 2.87401 8.51265C2.35041 9.77669 2.08176 11.1317 2.0835 12.4999C2.08173 13.8681 2.35037 15.2232 2.87397 16.4872C3.39757 17.7513 4.16581 18.8994 5.13455 19.8655C6.10075 20.8343 7.24886 21.6025 8.51289 22.1261C9.77693 22.6497 11.132 22.9183 12.5002 22.9166Z" stroke="url(#paint0_linear_475_251)" stroke-width="1.41667" stroke-linejoin="round"/>
<path d="M8.3335 12.5L11.4585 15.625L17.7085 9.375" stroke="url(#paint1_linear_475_251)" stroke-width="1.41667" stroke-linecap="round" stroke-linejoin="round"/>
<defs>
<linearGradient id="paint0_linear_475_251" x1="4.5" y1="20.5" x2="23" y2="7" gradientUnits="userSpaceOnUse">
<stop stop-color="#1DA7FF"/>
<stop offset="1" stop-color="#DBBBFE"/>
</linearGradient>
<linearGradient id="paint1_linear_475_251" x1="13.021" y1="9.375" x2="13.021" y2="15.625" gradientUnits="userSpaceOnUse">
<stop stop-color="#30A9FF"/>
<stop offset="1" stop-color="#E9BDFE"/>
</linearGradient>
</defs>
</svg>
