<svg width="25" height="25" viewBox="0 0 25 25" fill="none" xmlns="http://www.w3.org/2000/svg">
<path fill-rule="evenodd" clip-rule="evenodd" d="M25 12.5C25 15.8516 23.6809 18.895 21.5338 21.1396C19.2659 23.5102 16.0745 24.9896 12.5373 25H12.5H12.4627C8.92554 24.9896 5.73404 23.5102 3.4663 21.1396C1.31903 18.895 0 15.8516 0 12.5C0 5.59645 5.59645 0 12.5 0C19.4036 0 25 5.59645 25 12.5ZM20.0764 18.75C18.2752 16.5687 15.5499 15.1785 12.5 15.1785C9.45011 15.1785 6.72489 16.5687 4.92348 18.75C6.72489 20.9312 9.45011 22.3214 12.5 22.3214C15.5499 22.3214 18.2752 20.9312 20.0764 18.75ZM12.5002 13.3928C14.9658 13.3928 16.9645 11.3941 16.9645 8.92852C16.9645 6.46297 14.9658 4.46423 12.5002 4.46423C10.0347 4.46423 8.03593 6.46297 8.03593 8.92852C8.03593 11.3941 10.0347 13.3928 12.5002 13.3928Z" fill="black" fill-opacity="0.7"/>
</svg>
