<svg width="20" height="20" viewBox="0 0 20 20" fill="none" xmlns="http://www.w3.org/2000/svg">
<path d="M19.0087 7.10226L8.97745 17.1335C8.74305 17.3677 8.42523 17.4993 8.09385 17.4993C7.76248 17.4993 7.44466 17.3677 7.21026 17.1335L1.61495 11.5085C1.38094 11.2741 1.24951 10.9565 1.24951 10.6253C1.24951 10.2941 1.38094 9.97646 1.61495 9.7421L3.17745 8.1796C3.41172 7.94631 3.72887 7.81533 4.05948 7.81533C4.39009 7.81533 4.70724 7.94631 4.94151 8.1796L8.1251 11.2671L15.6845 3.80069C15.9188 3.56716 16.2361 3.43604 16.5669 3.43604C16.8977 3.43604 17.215 3.56716 17.4493 3.80069L19.0079 5.32726C19.1251 5.44341 19.2182 5.58162 19.2817 5.73391C19.3452 5.88621 19.378 6.04958 19.3781 6.21459C19.3781 6.37961 19.3455 6.543 19.2821 6.69536C19.2187 6.84771 19.1258 6.986 19.0087 7.10226Z" fill="url(#paint0_linear_475_6)"/>
<defs>
<linearGradient id="paint0_linear_475_6" x1="1.24951" y1="10.4677" x2="19.3781" y2="10.4677" gradientUnits="userSpaceOnUse">
<stop stop-color="#07A4FF"/>
<stop offset="1" stop-color="#F9BEFD"/>
</linearGradient>
</defs>
</svg>
