<svg width="22" height="25" viewBox="0 0 22 25" fill="none" xmlns="http://www.w3.org/2000/svg">
<g clip-path="url(#clip0_808_12)">
<path d="M10.94 25C12.6646 25 14.0635 23.6011 14.0635 21.875H7.81644C7.81644 23.6011 9.21537 25 10.94 25ZM21.4571 17.6899C20.5137 16.6763 18.7486 15.1514 18.7486 10.1562C18.7486 6.3623 16.0884 3.3252 12.5015 2.58008V1.5625C12.5015 0.699707 11.8023 0 10.94 0C10.0777 0 9.37845 0.699707 9.37845 1.5625V2.58008C5.79154 3.3252 3.13138 6.3623 3.13138 10.1562C3.13138 15.1514 1.36624 16.6763 0.422885 17.6899C0.129917 18.0049 3.37592e-05 18.3813 0.00247517 18.75C0.00784626 19.5508 0.636264 20.3125 1.56986 20.3125H20.3101C21.2437 20.3125 21.8726 19.5508 21.8775 18.75C21.8799 18.3813 21.75 18.0044 21.4571 17.6899Z" fill="black"/>
</g>
<defs>
<clipPath id="clip0_808_12">
<rect width="21.88" height="25" fill="white"/>
</clipPath>
</defs>
</svg>
