<svg width="21" height="20" viewBox="0 0 21 20" fill="none" xmlns="http://www.w3.org/2000/svg">
<path fill-rule="evenodd" clip-rule="evenodd" d="M1.10432 2.15061H3.10167L3.64393 4.21521C3.64832 4.23156 3.65309 4.24782 3.65823 4.26395L5.04321 11.2104C5.04699 11.248 5.05272 11.2853 5.06038 11.3223L5.6613 14.3331V14.3374C5.74376 14.7422 5.96326 15.1061 6.28264 15.3673C6.60203 15.6286 7.00169 15.7713 7.41398 15.7712H16.1273C16.4119 15.7712 16.6849 15.6579 16.8861 15.4562C17.0873 15.2546 17.2004 14.9811 17.2004 14.6959C17.2004 14.4107 17.0873 14.1372 16.8861 13.9355C16.6849 13.7339 16.4119 13.6206 16.1273 13.6206H7.70729L7.3496 11.8284H17.3606C17.4107 11.8284 17.5538 11.8327 17.6854 11.8112C17.9214 11.7712 18.1438 11.6731 18.3326 11.5257C18.5214 11.3783 18.6707 11.1862 18.7671 10.9667C18.8443 10.7889 18.883 10.5638 18.8959 10.4893L18.9001 10.4692L20.0319 4.93208L20.0347 4.91774C20.0721 4.7115 20.064 4.49955 20.0109 4.2968C19.9578 4.09404 19.8611 3.9054 19.7274 3.74415C19.5938 3.58289 19.4265 3.45293 19.2373 3.3634C19.0482 3.27386 18.8418 3.22694 18.6326 3.22592H5.60264L5.12476 1.3979C5.03542 1.00092 4.81391 0.646225 4.49667 0.392163C4.17943 0.1381 3.78534 -0.000203293 3.37923 2.24289e-07H1.10432C0.819726 2.24289e-07 0.546785 0.113291 0.345545 0.31495C0.144305 0.51661 0.03125 0.790118 0.03125 1.07531C0.03125 1.3605 0.144305 1.63401 0.345545 1.83566C0.546785 2.03732 0.819726 2.15061 1.10432 2.15061ZM16.671 18.3519C16.671 17.915 16.4978 17.496 16.1895 17.187C15.8812 16.8781 15.4631 16.7045 15.0271 16.7045C14.5911 16.7045 14.1729 16.8781 13.8646 17.187C13.5563 17.496 13.3831 17.915 13.3831 18.3519C13.3957 18.7802 13.5744 19.1868 13.8812 19.4852C14.188 19.7837 14.5988 19.9507 15.0264 19.9507C15.454 19.9507 15.8647 19.7837 16.1715 19.4852C16.4783 19.1868 16.657 18.7802 16.6696 18.3519H16.671ZM7.87183 16.706C8.0917 16.6995 8.31064 16.7373 8.51567 16.8171C8.72071 16.8969 8.90768 17.0172 9.06549 17.1707C9.22331 17.3243 9.34877 17.508 9.43445 17.711C9.52012 17.914 9.56427 18.1322 9.56427 18.3526C9.56427 18.5731 9.52012 18.7912 9.43445 18.9943C9.34877 19.1973 9.22331 19.381 9.06549 19.5346C8.90768 19.6881 8.72071 19.8083 8.51567 19.8882C8.31064 19.968 8.0917 20.0058 7.87183 19.9993C7.44441 19.9866 7.03872 19.8076 6.74086 19.5002C6.44299 19.1928 6.27638 18.7811 6.27638 18.3526C6.27638 17.9241 6.44299 17.5125 6.74086 17.2051C7.03872 16.8976 7.44441 16.7186 7.87183 16.706Z" fill="white"/>
</svg>
