<svg width="60" height="53" viewBox="0 0 60 53" fill="none" xmlns="http://www.w3.org/2000/svg">
<rect width="60" height="53" rx="10" fill="white"/>
<path fill-rule="evenodd" clip-rule="evenodd" d="M21.0753 18.1506H23.0768L23.6202 20.2152C23.6246 20.2316 23.6294 20.2478 23.6345 20.264L25.0224 27.2104C25.0262 27.248 25.0319 27.2853 25.0396 27.3223L25.6418 30.3331V30.3374C25.7244 30.7422 25.9444 31.1061 26.2644 31.3673C26.5845 31.6286 26.985 31.7713 27.3981 31.7712H36.1296C36.4148 31.7712 36.6883 31.6579 36.89 31.4562C37.0916 31.2546 37.2049 30.9811 37.2049 30.6959C37.2049 30.4107 37.0916 30.1372 36.89 29.9355C36.6883 29.7339 36.4148 29.6206 36.1296 29.6206H27.692L27.3336 27.8284H37.3655C37.4157 27.8284 37.5591 27.8327 37.691 27.8112C37.9274 27.7712 38.1503 27.6731 38.3395 27.5257C38.5286 27.3783 38.6783 27.1862 38.7749 26.9667C38.8523 26.7889 38.891 26.5638 38.9039 26.4893L38.9082 26.4692L40.0423 20.9321L40.0452 20.9177C40.0827 20.7115 40.0745 20.4996 40.0213 20.2968C39.9681 20.094 39.8711 19.9054 39.7372 19.7441C39.6033 19.5829 39.4356 19.4529 39.2461 19.3634C39.0566 19.2739 38.8497 19.2269 38.6401 19.2259H25.583L25.1041 17.3979C25.0146 17.0009 24.7926 16.6462 24.4747 16.3922C24.1568 16.1381 23.7619 15.9998 23.355 16H21.0753C20.7901 16 20.5166 16.1133 20.315 16.315C20.1133 16.5166 20 16.7901 20 17.0753C20 17.3605 20.1133 17.634 20.315 17.8357C20.5166 18.0373 20.7901 18.1506 21.0753 18.1506ZM36.6744 34.3519C36.6744 33.915 36.5009 33.496 36.1919 33.187C35.883 32.8781 35.464 32.7045 35.0271 32.7045C34.5902 32.7045 34.1711 32.8781 33.8622 33.187C33.5533 33.496 33.3797 33.915 33.3797 34.3519C33.3923 34.7802 33.5714 35.1868 33.8788 35.4852C34.1862 35.7837 34.5979 35.9507 35.0263 35.9507C35.4548 35.9507 35.8665 35.7837 36.1739 35.4852C36.4813 35.1868 36.6604 34.7802 36.673 34.3519H36.6744ZM27.8569 32.706C28.0772 32.6995 28.2966 32.7373 28.5021 32.8171C28.7076 32.8969 28.8949 33.0172 29.0531 33.1707C29.2112 33.3243 29.3369 33.508 29.4228 33.711C29.5086 33.914 29.5529 34.1322 29.5529 34.3526C29.5529 34.5731 29.5086 34.7912 29.4228 34.9943C29.3369 35.1973 29.2112 35.381 29.0531 35.5346C28.8949 35.6881 28.7076 35.8083 28.5021 35.8882C28.2966 35.968 28.0772 36.0058 27.8569 35.9993C27.4286 35.9866 27.0221 35.8076 26.7236 35.5002C26.4251 35.1928 26.2581 34.7811 26.2581 34.3526C26.2581 33.9241 26.4251 33.5125 26.7236 33.2051C27.0221 32.8976 27.4286 32.7186 27.8569 32.706Z" fill="black"/>
</svg>
