<svg width="26" height="25" viewBox="0 0 26 25" fill="none" xmlns="http://www.w3.org/2000/svg">
<path fill-rule="evenodd" clip-rule="evenodd" d="M2.20283 2.67857H4.68277L5.35605 5.25C5.36151 5.27037 5.36743 5.29062 5.37381 5.31071L7.09343 13.9625C7.09812 14.0093 7.10524 14.0558 7.11475 14.1018L7.86086 17.8518V17.8571C7.96324 18.3613 8.23578 18.8145 8.63233 19.1399C9.02889 19.4653 9.52512 19.643 10.037 19.6429H20.8557C21.209 19.6429 21.5479 19.5018 21.7978 19.2506C22.0477 18.9994 22.188 18.6588 22.188 18.3036C22.188 17.9484 22.0477 17.6077 21.7978 17.3566C21.5479 17.1054 21.209 16.9643 20.8557 16.9643H10.4012L9.95709 14.7321H22.3657H22.3834H22.3852C22.4474 14.7321 22.625 14.7375 22.7885 14.7107C23.0815 14.6609 23.3576 14.5387 23.592 14.3551C23.8264 14.1716 24.0118 13.9323 24.1315 13.6589C24.2274 13.4375 24.2754 13.1571 24.2914 13.0643L24.2967 13.0393L25.7019 6.14286L25.7054 6.125C25.7519 5.86813 25.7418 5.60415 25.6758 5.35162C25.6099 5.09909 25.4898 4.86415 25.3238 4.6633C25.1579 4.46246 24.9502 4.30059 24.7154 4.18908C24.4805 4.07757 24.2242 4.01913 23.9645 4.01786H23.9609H7.78625L7.19469 1.74107C7.08376 1.24663 6.80873 0.804868 6.41483 0.488435C6.02094 0.172003 5.53163 -0.000253199 5.0274 2.7935e-07H2.20283C1.84947 2.7935e-07 1.51058 0.141103 1.26072 0.392268C1.01086 0.643433 0.870483 0.984085 0.870483 1.33929C0.870483 1.69449 1.01086 2.03514 1.26072 2.2863C1.51058 2.53747 1.84947 2.67857 2.20283 2.67857ZM21.5307 22.8571C21.5307 22.313 21.3157 21.7911 20.9329 21.4063C20.5501 21.0215 20.0309 20.8054 19.4896 20.8054C18.9482 20.8054 18.4291 21.0215 18.0463 21.4063C17.6635 21.7911 17.4484 22.313 17.4484 22.8571C17.4641 23.3906 17.6859 23.8969 18.0668 24.2687C18.4477 24.6405 18.9578 24.8484 19.4887 24.8484C20.0196 24.8484 20.5296 24.6405 20.9106 24.2687C21.2915 23.8969 21.5133 23.3906 21.529 22.8571H21.5307ZM10.6055 20.8071C10.8785 20.799 11.1503 20.8461 11.4049 20.9455C11.6595 21.0449 11.8916 21.1947 12.0876 21.386C12.2835 21.5772 12.4393 21.806 12.5457 22.0589C12.652 22.3118 12.7069 22.5835 12.7069 22.858C12.7069 23.1326 12.652 23.4043 12.5457 23.6572C12.4393 23.91 12.2835 24.1389 12.0876 24.3301C11.8916 24.5214 11.6595 24.6711 11.4049 24.7705C11.1503 24.87 10.8785 24.917 10.6055 24.9089C10.0748 24.8932 9.5711 24.6702 9.20126 24.2873C8.83142 23.9044 8.62455 23.3917 8.62455 22.858C8.62455 22.3243 8.83142 21.8117 9.20126 21.4288C9.5711 21.0459 10.0748 20.8229 10.6055 20.8071Z" fill="black"/>
</svg>
