<svg width="60" height="60" viewBox="0 0 60 60" fill="none" xmlns="http://www.w3.org/2000/svg">
<g filter="url(#filter0_i_141_969)">
<circle cx="30" cy="30" r="30" fill="#5C41A9"/>
<path d="M17.82 21.36C18.16 21.16 18.67 20.97 19.35 20.79C20.05 20.61 20.75 20.52 21.45 20.52C22.45 20.52 23.33 20.67 24.09 20.97C24.87 21.25 25.37 21.7 25.59 22.32C25.95 23.36 26.34 24.57 26.76 25.95C27.18 27.33 27.6 28.76 28.02 30.24C28.44 31.7 28.85 33.15 29.25 34.59C29.65 36.01 30 37.27 30.3 38.37C30.06 38.65 29.7 38.87 29.22 39.03C28.74 39.21 28.17 39.3 27.51 39.3C27.03 39.3 26.62 39.26 26.28 39.18C25.96 39.1 25.69 38.98 25.47 38.82C25.27 38.66 25.1 38.45 24.96 38.19C24.84 37.93 24.73 37.63 24.63 37.29L24.09 35.22H18.66C18.5 35.82 18.34 36.44 18.18 37.08C18.02 37.72 17.86 38.34 17.7 38.94C17.42 39.04 17.12 39.12 16.8 39.18C16.5 39.26 16.13 39.3 15.69 39.3C14.67 39.3 13.91 39.13 13.41 38.79C12.93 38.43 12.69 37.94 12.69 37.32C12.69 37.04 12.73 36.76 12.81 36.48C12.89 36.2 12.98 35.87 13.08 35.49C13.22 34.95 13.41 34.28 13.65 33.48C13.91 32.68 14.19 31.82 14.49 30.9C14.79 29.96 15.11 29 15.45 28.02C15.79 27.04 16.11 26.12 16.41 25.26C16.71 24.38 16.98 23.6 17.22 22.92C17.48 22.24 17.68 21.72 17.82 21.36ZM21.42 25.23C21.14 26.07 20.82 27.01 20.46 28.05C20.12 29.07 19.81 30.11 19.53 31.17H23.25C22.97 30.09 22.68 29.04 22.38 28.02C22.1 26.98 21.84 26.05 21.6 25.23H21.42ZM37.5586 38.97C37.3386 39.01 37.0086 39.06 36.5686 39.12C36.1486 39.2 35.7186 39.24 35.2786 39.24C34.8386 39.24 34.4386 39.21 34.0786 39.15C33.7386 39.09 33.4486 38.97 33.2086 38.79C32.9686 38.61 32.7786 38.37 32.6386 38.07C32.5186 37.75 32.4586 37.34 32.4586 36.84V19.44C32.6786 19.4 32.9986 19.35 33.4186 19.29C33.8586 19.21 34.2986 19.17 34.7386 19.17C35.1786 19.17 35.5686 19.2 35.9086 19.26C36.2686 19.32 36.5686 19.44 36.8086 19.62C37.0486 19.8 37.2286 20.05 37.3486 20.37C37.4886 20.67 37.5586 21.07 37.5586 21.57V38.97ZM45.9668 38.97C45.7468 39.01 45.4168 39.06 44.9768 39.12C44.5568 39.2 44.1268 39.24 43.6868 39.24C43.2468 39.24 42.8468 39.21 42.4868 39.15C42.1468 39.09 41.8568 38.97 41.6168 38.79C41.3768 38.61 41.1868 38.37 41.0468 38.07C40.9268 37.75 40.8668 37.34 40.8668 36.84V19.44C41.0868 19.4 41.4068 19.35 41.8268 19.29C42.2668 19.21 42.7068 19.17 43.1468 19.17C43.5868 19.17 43.9768 19.2 44.3168 19.26C44.6768 19.32 44.9768 19.44 45.2168 19.62C45.4568 19.8 45.6368 20.05 45.7568 20.37C45.8968 20.67 45.9668 21.07 45.9668 21.57V38.97Z" fill="#F5F5F5"/>
</g>
<defs>
<filter id="filter0_i_141_969" x="0" y="0" width="61" height="61" filterUnits="userSpaceOnUse" color-interpolation-filters="sRGB">
<feFlood flood-opacity="0" result="BackgroundImageFix"/>
<feBlend mode="normal" in="SourceGraphic" in2="BackgroundImageFix" result="shape"/>
<feColorMatrix in="SourceAlpha" type="matrix" values="0 0 0 0 0 0 0 0 0 0 0 0 0 0 0 0 0 0 127 0" result="hardAlpha"/>
<feOffset dx="2" dy="2"/>
<feGaussianBlur stdDeviation="0.5"/>
<feComposite in2="hardAlpha" operator="arithmetic" k2="-1" k3="1"/>
<feColorMatrix type="matrix" values="0 0 0 0 1 0 0 0 0 1 0 0 0 0 1 0 0 0 0.25 0"/>
<feBlend mode="normal" in2="shape" result="effect1_innerShadow_141_969"/>
</filter>
</defs>
</svg>
