<svg width="60" height="53" viewBox="0 0 60 53" fill="none" xmlns="http://www.w3.org/2000/svg">
<rect width="60" height="53" rx="10" fill="white"/>
<path d="M29.3305 17.7359C28.0121 16.5537 26.2844 15.933 24.5152 16.0057C22.7459 16.0785 21.075 16.8391 19.8582 18.1256C18.6415 19.412 17.975 21.1227 18.0007 22.8932C18.0265 24.6637 18.7424 26.3543 19.996 27.6048L27.7292 35.3369C28.154 35.7615 28.7299 36 29.3305 36C29.931 36 30.507 35.7615 30.9317 35.3369L38.6649 27.6048C39.9185 26.3543 40.6345 24.6637 40.6602 22.8932C40.6859 21.1227 40.0195 19.412 38.8027 18.1256C37.5859 16.8391 35.915 16.0785 34.1458 16.0057C32.3765 15.933 30.6488 16.5537 29.3305 17.7359ZM28.0033 19.5976L28.5298 20.123C28.7422 20.3353 29.0302 20.4546 29.3305 20.4546C29.6307 20.4546 29.9187 20.3353 30.1311 20.123L30.6576 19.5976C31.0755 19.1649 31.5753 18.8199 32.1279 18.5825C32.6806 18.3451 33.2749 18.2201 33.8764 18.2149C34.4778 18.2097 35.0743 18.3243 35.631 18.552C36.1876 18.7798 36.6934 19.1161 37.1187 19.5414C37.544 19.9667 37.8803 20.4725 38.1081 21.0291C38.3358 21.5858 38.4504 22.1823 38.4452 22.7837C38.44 23.3852 38.315 23.9795 38.0776 24.5322C37.8402 25.0848 37.4952 25.5846 37.0625 26.0025L29.3305 33.7357L21.5984 26.0025C20.7733 25.1482 20.3167 24.004 20.327 22.8163C20.3374 21.6287 20.8137 20.4926 21.6536 19.6527C22.4934 18.8129 23.6295 18.3365 24.8171 18.3262C26.0048 18.3159 27.149 18.7725 28.0033 19.5976Z" fill="black"/>
</svg>
