<svg width="23" height="20" viewBox="0 0 23 20" fill="none" xmlns="http://www.w3.org/2000/svg">
<path d="M11.388 1.73589C10.0724 0.553742 8.34821 -0.0670386 6.58266 0.00574824C4.81711 0.0785351 3.14967 0.839139 1.93543 2.12558C0.721186 3.41203 0.0560881 5.12266 0.0817718 6.8932C0.107455 8.66374 0.821891 10.3543 2.07293 11.6048L9.79007 19.3369C10.2139 19.7615 10.7887 20 11.388 20C11.9873 20 12.562 19.7615 12.9859 19.3369L20.703 11.6048C21.954 10.3543 22.6685 8.66374 22.6941 6.8932C22.7198 5.12266 22.0547 3.41203 20.8405 2.12558C19.6263 0.839139 17.9588 0.0785351 16.1933 0.00574824C14.4277 -0.0670386 12.7035 0.553742 11.388 1.73589ZM10.0635 3.59757L10.589 4.12301C10.8009 4.3353 11.0883 4.45456 11.388 4.45456C11.6876 4.45456 11.975 4.3353 12.1869 4.12301L12.7124 3.59757C13.1294 3.16494 13.6281 2.81987 14.1796 2.58247C14.7311 2.34508 15.3242 2.22012 15.9244 2.2149C16.5246 2.20967 17.1198 2.32428 17.6754 2.55203C18.2309 2.77979 18.7356 3.11612 19.16 3.54142C19.5844 3.96672 19.92 4.47247 20.1473 5.02914C20.3746 5.58581 20.489 6.18227 20.4838 6.78372C20.4785 7.38516 20.3538 7.97953 20.1169 8.53217C19.88 9.0848 19.5357 9.58462 19.104 10.0025L11.388 17.7357L3.67196 10.0025C2.84857 9.14817 2.39295 8.00397 2.40325 6.81632C2.41355 5.62866 2.88894 4.49258 3.72702 3.65275C4.56511 2.81292 5.69883 2.33654 6.88402 2.32622C8.0692 2.3159 9.21102 2.77246 10.0635 3.59757Z" fill="white"/>
</svg>
