<svg width="25" height="25" viewBox="0 0 25 25" fill="none" xmlns="http://www.w3.org/2000/svg">
<path fill-rule="evenodd" clip-rule="evenodd" d="M24.8705 12.5C24.8705 15.8516 23.5582 18.895 21.4222 21.1396C19.1661 23.5102 15.9912 24.9896 12.4723 25H12.4352H12.3981C8.87929 24.9896 5.70433 23.5102 3.44834 21.1396C1.3122 18.895 0 15.8516 0 12.5C0 5.59645 5.56745 0 12.4352 0C19.303 0 24.8705 5.59645 24.8705 12.5ZM19.9724 18.75C18.1805 16.5687 15.4693 15.1785 12.4352 15.1785C9.40114 15.1785 6.69005 16.5687 4.89797 18.75C6.69005 20.9312 9.40114 22.3214 12.4352 22.3214C15.4693 22.3214 18.1805 20.9312 19.9724 18.75ZM12.4354 13.3928C14.8882 13.3928 16.8766 11.3941 16.8766 8.92852C16.8766 6.46297 14.8882 4.46423 12.4354 4.46423C9.98267 4.46423 7.99429 6.46297 7.99429 8.92852C7.99429 11.3941 9.98267 13.3928 12.4354 13.3928Z" fill="black"/>
</svg>
