<svg width="15" height="16" viewBox="0 0 15 16" fill="none" xmlns="http://www.w3.org/2000/svg">
<path d="M13.9286 8.62069H8.57143V14.0086C8.57143 14.2944 8.45855 14.5685 8.25761 14.7706C8.05668 14.9727 7.78416 15.0862 7.5 15.0862C7.21584 15.0862 6.94332 14.9727 6.74239 14.7706C6.54145 14.5685 6.42857 14.2944 6.42857 14.0086V8.62069H1.07143C0.787268 8.62069 0.514746 8.50716 0.313814 8.30507C0.112883 8.10298 0 7.8289 0 7.5431C0 7.25731 0.112883 6.98322 0.313814 6.78113C0.514746 6.57905 0.787268 6.46552 1.07143 6.46552H6.42857V1.07759C6.42857 0.791792 6.54145 0.517704 6.74239 0.315617C6.94332 0.113531 7.21584 0 7.5 0C7.78416 0 8.05668 0.113531 8.25761 0.315617C8.45855 0.517704 8.57143 0.791792 8.57143 1.07759V6.46552H13.9286C14.2127 6.46552 14.4853 6.57905 14.6862 6.78113C14.8871 6.98322 15 7.25731 15 7.5431C15 7.8289 14.8871 8.10298 14.6862 8.30507C14.4853 8.50716 14.2127 8.62069 13.9286 8.62069Z" fill="black" fill-opacity="0.2"/>
</svg>
