<svg width="60" height="53" viewBox="0 0 60 53" fill="none" xmlns="http://www.w3.org/2000/svg">
<rect width="60" height="53" rx="10" fill="white"/>
<path d="M21.9369 23.7349C21.8257 23.7349 21.7189 23.7791 21.6403 23.8577C21.5616 23.9364 21.5174 24.0431 21.5174 24.1544V35.0631C21.5174 35.2947 21.7053 35.4826 21.9369 35.4826H36.2021C36.3134 35.4826 36.4201 35.4384 36.4988 35.3597C36.5774 35.2811 36.6217 35.1743 36.6217 35.0631V24.1544C36.6217 24.0431 36.5774 23.9364 36.4988 23.8577C36.4201 23.7791 36.3134 23.7349 36.2021 23.7349H34.5238C34.19 23.7349 33.8699 23.6022 33.6338 23.3662C33.3978 23.1301 33.2651 22.81 33.2651 22.4762C33.2651 22.1423 33.3978 21.8222 33.6338 21.5861C33.8699 21.3501 34.19 21.2175 34.5238 21.2175H36.2021C37.8233 21.2175 39.139 22.5332 39.139 24.1544V35.0631C39.139 35.842 38.8296 36.589 38.2788 37.1398C37.728 37.6906 36.981 38 36.2021 38H21.9369C21.158 38 20.411 37.6906 19.8602 37.1398C19.3094 36.589 19 35.842 19 35.0631V24.1544C19 22.5332 20.3158 21.2175 21.9369 21.2175H23.6152C23.949 21.2175 24.2692 21.3501 24.5052 21.5861C24.7413 21.8222 24.8739 22.1423 24.8739 22.4762C24.8739 22.81 24.7413 23.1301 24.5052 23.3662C24.2692 23.6022 23.949 23.7349 23.6152 23.7349H21.9369ZM28.7725 13.1233C28.8114 13.0842 28.8577 13.0532 28.9087 13.032C28.9597 13.0109 29.0143 13 29.0695 13C29.1247 13 29.1793 13.0109 29.2303 13.032C29.2813 13.0532 29.3276 13.0842 29.3666 13.1233L34.2268 17.9835C34.2856 18.0422 34.3257 18.117 34.3419 18.1985C34.3582 18.28 34.3499 18.3644 34.3181 18.4412C34.2863 18.518 34.2324 18.5835 34.1632 18.6296C34.0941 18.6757 34.0128 18.7002 33.9297 18.7001H30.3282V28.35C30.3282 28.6839 30.1956 29.004 29.9595 29.2401C29.7235 29.4761 29.4033 29.6087 29.0695 29.6087C28.7357 29.6087 28.4155 29.4761 28.1795 29.2401C27.9434 29.004 27.8108 28.6839 27.8108 28.35V18.7001H24.2093C24.1262 18.7002 24.0449 18.6757 23.9758 18.6296C23.9067 18.5835 23.8528 18.518 23.821 18.4412C23.7891 18.3644 23.7808 18.28 23.7971 18.1985C23.8133 18.117 23.8534 18.0422 23.9122 17.9835L28.7725 13.1233Z" fill="black"/>
</svg>
