<svg width="111" height="20" viewBox="0 0 111 20" fill="none" xmlns="http://www.w3.org/2000/svg">
<path d="M4.23962 20H0.216621V0.721999H11.2596V4.07H4.23962V9.038H10.7736V12.386H4.23962V20ZM26.132 20H15.035V0.721999H26.132V4.07H19.112V8.309H25.646V11.657H19.112V16.625H26.132V20ZM37.5684 20H33.4914V4.124H28.2534V0.721999H42.8064V4.124H37.5684V20ZM53.9331 20L49.2891 4.88H49.1811C49.1991 5.24 49.2261 5.78 49.2621 6.5C49.2981 7.22 49.3341 7.994 49.3701 8.822C49.4061 9.632 49.4241 10.37 49.4241 11.036V20H45.7791V0.721999H51.3411L55.9041 15.464H55.9851L60.8181 0.721999H66.3801V20H62.5731V10.874C62.5731 10.262 62.5821 9.56 62.6001 8.768C62.6361 7.976 62.6631 7.229 62.6811 6.527C62.7171 5.807 62.7441 5.267 62.7621 4.907H62.6541L57.6861 20H53.9331ZM78.4588 20H69.6838V17.678L72.0328 16.598V4.124L69.6838 3.044V0.721999H78.4588V3.044L76.1098 4.124V16.598L78.4588 17.678V20ZM81.744 20V0.721999H85.821V16.625H93.651V20H81.744ZM102.187 8.66L106.21 0.721999H110.611L104.212 12.494V20H100.162V12.629L93.7632 0.721999H98.1912L102.187 8.66Z" fill="#1A1A1A"/>
<path d="M4.23962 20H0.216621V0.721999H11.2596V4.07H4.23962V9.038H10.7736V12.386H4.23962V20ZM26.132 20H15.035V0.721999H26.132V4.07H19.112V8.309H25.646V11.657H19.112V16.625H26.132V20ZM37.5684 20H33.4914V4.124H28.2534V0.721999H42.8064V4.124H37.5684V20ZM53.9331 20L49.2891 4.88H49.1811C49.1991 5.24 49.2261 5.78 49.2621 6.5C49.2981 7.22 49.3341 7.994 49.3701 8.822C49.4061 9.632 49.4241 10.37 49.4241 11.036V20H45.7791V0.721999H51.3411L55.9041 15.464H55.9851L60.8181 0.721999H66.3801V20H62.5731V10.874C62.5731 10.262 62.5821 9.56 62.6001 8.768C62.6361 7.976 62.6631 7.229 62.6811 6.527C62.7171 5.807 62.7441 5.267 62.7621 4.907H62.6541L57.6861 20H53.9331ZM78.4588 20H69.6838V17.678L72.0328 16.598V4.124L69.6838 3.044V0.721999H78.4588V3.044L76.1098 4.124V16.598L78.4588 17.678V20ZM81.744 20V0.721999H85.821V16.625H93.651V20H81.744ZM102.187 8.66L106.21 0.721999H110.611L104.212 12.494V20H100.162V12.629L93.7632 0.721999H98.1912L102.187 8.66Z" fill="url(#paint0_linear_17_34)"/>
<defs>
<linearGradient id="paint0_linear_17_34" x1="-2.21338" y1="9.5" x2="110.787" y2="9.5" gradientUnits="userSpaceOnUse">
<stop stop-color="#07A4FF"/>
<stop offset="1" stop-color="#F9BEFD"/>
</linearGradient>
</defs>
</svg>
