<svg width="26" height="25" viewBox="0 0 26 25" fill="none" xmlns="http://www.w3.org/2000/svg">
<path fill-rule="evenodd" clip-rule="evenodd" d="M25.1554 12.5C25.1554 15.8516 23.8431 18.895 21.7071 21.1396C19.451 23.5102 16.2761 24.9896 12.7573 25H12.7201H12.683C9.1642 24.9896 5.98924 23.5102 3.73326 21.1396C1.59711 18.895 0.284912 15.8516 0.284912 12.5C0.284912 5.59645 5.85236 0 12.7201 0C19.5879 0 25.1554 5.59645 25.1554 12.5ZM20.2573 18.75C18.4654 16.5687 15.7542 15.1785 12.7201 15.1785C9.68605 15.1785 6.97496 16.5687 5.18288 18.75C6.97496 20.9312 9.68605 22.3214 12.7201 22.3214C15.7542 22.3214 18.4654 20.9312 20.2573 18.75ZM12.7204 13.3928C15.1731 13.3928 17.1615 11.3941 17.1615 8.92852C17.1615 6.46297 15.1731 4.46423 12.7204 4.46423C10.2676 4.46423 8.2792 6.46297 8.2792 8.92852C8.2792 11.3941 10.2676 13.3928 12.7204 13.3928Z" fill="black" fill-opacity="0.7"/>
</svg>
