<svg width="26" height="25" viewBox="0 0 26 25" fill="none" xmlns="http://www.w3.org/2000/svg">
<path fill-rule="evenodd" clip-rule="evenodd" d="M1.77278 2.67857H4.25272L4.926 5.25C4.93145 5.27037 4.93738 5.29062 4.94376 5.31071L6.66338 13.9625C6.66807 14.0093 6.67518 14.0558 6.68469 14.1018L7.43081 17.8518V17.8571C7.53319 18.3613 7.80572 18.8145 8.20228 19.1399C8.59884 19.4653 9.09506 19.643 9.60697 19.6429H20.4256C20.779 19.6429 21.1179 19.5018 21.3677 19.2506C21.6176 18.9994 21.758 18.6588 21.758 18.3036C21.758 17.9484 21.6176 17.6077 21.3677 17.3566C21.1179 17.1054 20.779 16.9643 20.4256 16.9643H9.97115L9.52703 14.7321H21.9356H21.9534H21.9552C22.0173 14.7321 22.195 14.7375 22.3584 14.7107C22.6514 14.6609 22.9275 14.5387 23.1619 14.3551C23.3963 14.1716 23.5817 13.9323 23.7014 13.6589C23.7974 13.4375 23.8453 13.1571 23.8613 13.0643L23.8666 13.0393L25.2718 6.14286L25.2754 6.125C25.3218 5.86813 25.3117 5.60415 25.2458 5.35162C25.1799 5.09909 25.0597 4.86415 24.8938 4.6633C24.7278 4.46246 24.5201 4.30059 24.2853 4.18908C24.0505 4.07757 23.7942 4.01913 23.5344 4.01786H23.5309H7.3562L6.76463 1.74107C6.6537 1.24663 6.37867 0.804868 5.98478 0.488435C5.59088 0.172003 5.10158 -0.000253199 4.59735 2.7935e-07H1.77278C1.41942 2.7935e-07 1.08053 0.141103 0.830665 0.392268C0.580802 0.643433 0.44043 0.984085 0.44043 1.33929C0.44043 1.69449 0.580802 2.03514 0.830665 2.2863C1.08053 2.53747 1.41942 2.67857 1.77278 2.67857ZM21.1007 22.8571C21.1007 22.313 20.8856 21.7911 20.5028 21.4063C20.1201 21.0215 19.6009 20.8054 19.0595 20.8054C18.5182 20.8054 17.999 21.0215 17.6162 21.4063C17.2334 21.7911 17.0184 22.313 17.0184 22.8571C17.034 23.3906 17.2559 23.8969 17.6368 24.2687C18.0177 24.6405 18.5277 24.8484 19.0586 24.8484C19.5896 24.8484 20.0996 24.6405 20.4805 24.2687C20.8614 23.8969 21.0832 23.3906 21.0989 22.8571H21.1007ZM10.1754 20.8071C10.4484 20.799 10.7203 20.8461 10.9749 20.9455C11.2294 21.0449 11.4616 21.1947 11.6575 21.386C11.8535 21.5772 12.0092 21.806 12.1156 22.0589C12.222 22.3118 12.2768 22.5835 12.2768 22.858C12.2768 23.1326 12.222 23.4043 12.1156 23.6572C12.0092 23.91 11.8535 24.1389 11.6575 24.3301C11.4616 24.5214 11.2294 24.6711 10.9749 24.7705C10.7203 24.87 10.4484 24.917 10.1754 24.9089C9.64475 24.8932 9.14104 24.6702 8.7712 24.2873C8.40136 23.9044 8.1945 23.3917 8.1945 22.858C8.1945 22.3243 8.40136 21.8117 8.7712 21.4288C9.14104 21.0459 9.64475 20.8229 10.1754 20.8071Z" fill="black" fill-opacity="0.7"/>
</svg>
